<?xml version="1.0" encoding="iso-8859-1"?>
<!-- Generator: Adobe Illustrator 25.2.3, SVG Export Plug-In . SVG Version: 6.00 Build 0)  -->
<svg version="1.1" baseProfile="basic" id="Layer_1"
	 xmlns="http://www.w3.org/2000/svg" xmlns:xlink="http://www.w3.org/1999/xlink" x="0px" y="0px" viewBox="0 0 48 48"
	 xml:space="preserve">
<path style="fill:#6BE3A2;" d="M15.747,39.575L2.444,26.272c-1.562-1.562-1.562-4.095,0-5.657l1.414-1.414
	c1.562-1.562,4.095-1.562,5.657,0L19,28.686L38.485,9.201c1.562-1.562,4.095-1.562,5.657,0l1.414,1.414
	c0.97,0.97,1.338,2.314,1.103,3.568c-0.143,0.765-1.511,1.497-2.103,2.089L22.253,38.575c-0.898,0.898-2.075,2.347-3.253,2.347
	C17.823,40.923,16.646,40.473,15.747,39.575z"/>
<path style="fill:#324561;" d="M19,40.923c-0.553,0-1-0.447-1-1s0.447-1,1-1c0.693,0,1.347-0.271,1.839-0.763l23.304-23.303
	c0.285-0.286,0.476-0.646,0.549-1.042c0.103-0.543,0.63-0.894,1.167-0.8c0.543,0.102,0.901,0.624,0.8,1.167
	c-0.148,0.794-0.529,1.516-1.101,2.088L22.253,39.575C21.383,40.444,20.228,40.923,19,40.923z"/>
</svg>