<svg width="989" height="712" xmlns="http://www.w3.org/2000/svg" xmlns:xlink="http://www.w3.org/1999/xlink" overflow="hidden"><defs><clipPath id="clip0"><rect x="2816" y="948" width="989" height="712"/></clipPath></defs><g clip-path="url(#clip0)" transform="translate(-2816 -948)"><path d="M0 96.5021C-1.57391e-14 43.2055 43.2055-1.57391e-14 96.5021-3.14782e-14L164.833 0 164.833 0 412.083 0 892.498 0C945.795-3.14782e-14 989 43.2055 989 96.5021L989 337.75 989 337.75 989 482.5 989 482.498C989 535.794 945.795 579 892.498 579L412.083 579 105.823 711.434 164.833 579 96.5021 579C43.2055 579 0 535.794 0 482.498L0 482.5 0 337.75 0 337.75Z" fill="#D7D7B3" fill-rule="evenodd" transform="matrix(-1 0 0 1 3805 948)"/></g></svg>