<svg width="1102" height="788" xmlns="http://www.w3.org/2000/svg" xmlns:xlink="http://www.w3.org/1999/xlink" overflow="hidden"><defs><clipPath id="clip0"><rect x="426" y="591" width="1102" height="788"/></clipPath></defs><g clip-path="url(#clip0)" transform="translate(-426 -591)"><path d="M426 698.835C426 639.279 474.279 591 533.835 591L609.667 591 609.667 591 885.167 591 1420.16 591C1479.72 591 1528 639.279 1528 698.835L1528 968.417 1528 968.417 1528 1130.17 1528 1130.16C1528 1189.72 1479.72 1238 1420.16 1238L885.167 1238 536.255 1378.3 609.667 1238 533.835 1238C474.279 1238 426 1189.72 426 1130.16L426 1130.17 426 968.417 426 968.417Z" fill="#D7D7B3" fill-rule="evenodd"/></g></svg>