<svg width="1083" height="517" xmlns="http://www.w3.org/2000/svg" xmlns:xlink="http://www.w3.org/1999/xlink" overflow="hidden"><defs><clipPath id="clip0"><rect x="725" y="1367" width="1083" height="517"/></clipPath></defs><g clip-path="url(#clip0)" transform="translate(-725 -1367)"><path d="M935 1453.17C935 1405.58 973.579 1367 1021.17 1367L1080.5 1367 1080.5 1367 1298.75 1367 1721.83 1367C1769.42 1367 1808 1405.58 1808 1453.17L1808 1668.58 1808 1668.58 1808 1797.83 1808 1797.83C1808 1845.42 1769.42 1884 1721.83 1884L1298.75 1884 1080.5 1884 1080.5 1884 1021.17 1884C973.579 1884 935 1845.42 935 1797.83L935 1797.83 725.567 1776.29 935 1668.58Z" fill="#D7D7B3" fill-rule="evenodd"/></g></svg>